# xmcd
#
# Track frame offsets:
#	150
#	12898
#	25765
#	43431
#	56352
#	67789
#	88635
#	103711
#	117766
#	128926
#	151432
#	162656
#
# Disc length: 2390 seconds
#
# Revision: 0
# Processed by: cddbd v1.5.2PL0 Copyright (c) Steve Scherf et al.
# Submitted via: EasyCDDAExtractor 2010.6.0.0
#
DISCID=9809540c
DTITLE=Honky Tonk Men - Woodbeat
DYEAR=2007
DGENRE=
TTITLE0=A little love
TTITLE1=Kairo
TTITLE2=What's wrong with me
TTITLE3=Crazy love
TTITLE4=I'll show you the door
TTITLE5=My love gets stronger
TTITLE6=Sackbeer twist
TTITLE7=Clear day
TTITLE8=My son
TTITLE9=The birch
TTITLE10=Twistin' blues
TTITLE11=Woodbeat
EXTD=
EXTT0=
EXTT1=
EXTT2=
EXTT3=
EXTT4=
EXTT5=
EXTT6=
EXTT7=
EXTT8=
EXTT9=
EXTT10=
EXTT11=
PLAYORDER=
